<svg rpl="" fill="currentColor" height="32" icon-name="meme-fill" viewBox="0 0 20 20" width="32" xmlns="http://www.w3.org/2000/svg"><path d="M13 9.25h-2V12H4V9.25H.771a7.09 7.09 0 00-.2 1.625 7.545 7.545 0 002.81 5.779A10.231 10.231 0 0010.024 19a10.23 10.23 0 006.645-2.346A7.7 7.7 0 0019.375 12H13V9.25zm-3 7a6.26 6.26 0 01-4.357-1.713l1.048-1.073a4.977 4.977 0 004.616 1.117l.386 1.449a6.569 6.569 0 01-1.693.22zM4 8H1.064V1.271a1.128 1.128 0 01.582-.987 1.107 1.107 0 011.125.033l3.9 2.458a11.01 11.01 0 016.7 0l3.9-2.458a1.11 1.11 0 011.554.381c.102.174.156.372.155.573V7H13v1h-2V7H4v1z"></path></svg>